<svg width="153" height="149" viewBox="0 0 153 149" fill="none" xmlns="http://www.w3.org/2000/svg">
<path d="M64.5469 83.8125H23.9062C22.6382 83.8125 21.4221 83.3219 20.5254 82.4487C19.6287 81.5755 19.125 80.3912 19.125 79.1562V41.9062C19.125 40.6713 19.6287 39.487 20.5254 38.6138C21.4221 37.7406 22.6382 37.25 23.9062 37.25H59.7656C61.0337 37.25 62.2498 37.7406 63.1465 38.6138C64.0431 39.487 64.5469 40.6713 64.5469 41.9062V93.125C64.5469 99.2996 62.0282 105.221 57.5449 109.587C53.0616 113.953 46.981 116.406 40.6406 116.406" stroke="#B367E1" stroke-opacity="0.5" stroke-width="10" stroke-linecap="round" stroke-linejoin="round"/>
<path d="M133.875 83.8125H93.2344C91.9663 83.8125 90.7502 83.3219 89.8535 82.4487C88.9569 81.5755 88.4531 80.3912 88.4531 79.1562V41.9062C88.4531 40.6713 88.9569 39.487 89.8535 38.6138C90.7502 37.7406 91.9663 37.25 93.2344 37.25H129.094C130.362 37.25 131.578 37.7406 132.475 38.6138C133.371 39.487 133.875 40.6713 133.875 41.9062V93.125C133.875 99.2996 131.356 105.221 126.873 109.587C122.39 113.953 116.309 116.406 109.969 116.406" stroke="#B367E1" stroke-opacity="0.5" stroke-width="10" stroke-linecap="round" stroke-linejoin="round"/>
</svg>
